<?xml version="1.0" encoding="UTF-8"?>
<svg id="_레이어_1" data-name="레이어_1" xmlns="http://www.w3.org/2000/svg" version="1.1" xmlns:xlink="http://www.w3.org/1999/xlink" viewBox="0 0 256 256">
  <!-- Generator: Adobe Illustrator 29.3.1, SVG Export Plug-In . SVG Version: 2.1.0 Build 151)  -->
  <defs>
    <style>
      .st0 {
        fill: #1d1d1b;
      }
    </style>
  </defs>
  <path class="st0" d="M193.4,191h-122.8c-16,0-29.1-13-29.1-29.1v-77.5c0-16,13-29.1,29.1-29.1h122.8c16,0,29.1,13,29.1,29.1v77.5c0,16-13,29.1-29.1,29.1ZM70.6,63.8c-11.3,0-20.6,9.2-20.6,20.6v77.5c0,11.3,9.2,20.6,20.6,20.6h122.8c11.3,0,20.6-9.2,20.6-20.6v-77.5c0-11.3-9.2-20.6-20.6-20.6h-122.8Z"/>
  <path class="st0" d="M63.7,84.8c21.7,21.2,43.4,42.3,65.1,63.5,4,3.9,10.3-2.3,6.2-6.2-21.7-21.2-43.4-42.3-65.1-63.5-4-3.9-10.3,2.3-6.2,6.2h0Z"/>
  <path class="st0" d="M135.1,148.3c21.7-21.2,43.4-42.3,65.1-63.5,4.1-3.9-2.2-10.2-6.2-6.2-21.7,21.2-43.4,42.3-65.1,63.5-4.1,3.9,2.2,10.2,6.2,6.2h0Z"/>
  <path class="st0" d="M200,163.2c-14.4-13.7-28.9-27.4-43.4-41.1-4.1-3.9-10.3,2.3-6.2,6.2,14.4,13.7,28.9,27.4,43.4,41.1,4.1,3.9,10.3-2.3,6.2-6.2h0Z"/>
  <path class="st0" d="M70.5,169.4c14.4-13.7,28.9-27.4,43.4-41.1,4.1-3.9-2.1-10.1-6.2-6.2-14.4,13.7-28.9,27.4-43.4,41.1-4.1,3.9,2.1,10.1,6.2,6.2h0Z"/>
</svg>