<?xml version="1.0" encoding="UTF-8"?>
<svg id="_레이어_2" data-name="레이어 2" xmlns="http://www.w3.org/2000/svg" viewBox="0 0 134.96 106.64">
  <defs>
    <style>
      .cls-1 {
        fill: #f5b862;
      }

      .cls-2 {
        fill: #f55f5f;
      }

      .cls-3 {
        fill: #4b5562;
      }

      .cls-4 {
        fill: #76f09b;
      }
    </style>
  </defs>
  <g id="svg3508">
    <path id="path3769" class="cls-4" d="M92.67,80.25H0l23.17-40.13L46.33,0l23.17,40.13,23.17,40.13Z"/>
    <path id="rect3782" class="cls-2" d="M54.96,26.64v80h80V26.64H54.96Z"/>
    <circle id="path5373" class="cls-1" cx="120.33" cy="90.61" r="10.36"/>
    <g id="flowRoot2993-0">
      <path id="path3457" class="cls-3" d="M73.5,80.18c0,3.99-.68,6.96-2.04,8.93-1.31,1.97-4.11,4.29-8.4,6.96l-6.36-6.66c2.42-1.82,3.89-3.38,4.39-4.69.56-1.31.83-3.83.83-7.57v-35.95l11.58-1.21s0,40.19,0,40.19ZM67.29,37.8c-4.19,0-6.28-2.35-6.28-7.04,0-1.82.56-3.3,1.67-4.47,1.11-1.21,2.93-1.82,5.45-1.82,4.14,0,6.21,2.37,6.21,7.11,0,1.82-.56,3.3-1.67,4.47-1.11,1.16-2.9,1.74-5.37,1.74h0Z"/>
      <path id="path3459" class="cls-3" d="M79.47,51.95c0-3.68,1.46-6.66,4.39-8.93,2.93-2.27,6.61-3.41,11.05-3.41s7.9,1.03,10.37,3.1c2.47,2.02,3.91,4.87,4.31,8.55l-10.14,1.97c-.35-3.43-2.04-5.15-5.07-5.15-1.11,0-2.02.33-2.72.98-.71.66-1.06,1.36-1.06,2.12,0,.76.08,1.34.23,1.74.2.4.48.78.83,1.14.4.35.78.68,1.14.98.4.25.93.53,1.59.83.71.3,1.31.56,1.82.76.71.4,2.32,1.14,4.84,2.19,2.52,1.01,4.64,2.32,6.36,3.94,1.72,1.61,2.57,3.96,2.57,7.04s-1.41,5.85-4.24,8.33c-2.78,2.42-6.71,3.63-11.81,3.63-5.1,0-10.19-1.49-15.29-4.47l4.16-7.49c5.05,2.17,8.75,3.25,11.13,3.25,1.16,0,2.12-.25,2.88-.76.81-.5,1.21-1.26,1.21-2.27,0-1.06-.56-1.92-1.67-2.57-1.16-.71-2.04-1.19-2.65-1.44-4.79-1.87-8.43-3.81-10.9-5.83-2.22-1.82-3.33-4.57-3.33-8.25h0Z"/>
    </g>
  </g>
</svg>